<svg xmlns="http://www.w3.org/2000/svg" width="31" height="32" viewBox="0 0 31 31"><path d="M14.43.648c-1.047.13-2.024.442-2.832.91-1.246.727-2.239 1.934-2.739 3.329-.652 1.82-.617 4.066.094 6.23.567 1.719 1.469 3.27 2.625 4.512.23.246.281.351.383.824.055.246.023.867-.05 1.07l-.06.153.282.273c1.242 1.207 3.226 1.578 4.879.914.566-.226 1.281-.707 1.547-1.035.109-.133.113-.152.078-.3-.051-.227-.043-.77.02-1.06.116-.538.152-.613.425-.91 1.262-1.347 2.348-3.43 2.797-5.347.215-.934.273-1.445.277-2.418.004-1.168-.09-1.844-.402-2.762-.77-2.297-2.586-3.836-5.067-4.297-.41-.074-.644-.093-1.242-.101-.406-.008-.863 0-1.015.015m0 0" style="stroke:none;fill-rule:nonzero;fill:#000;fill-opacity:1"/><path d="M9.965 18.938a30 30 0 0 0-3.32 1.546 22 22 0 0 0-2.067 1.344c-.871.668-1.601 1.508-1.879 2.156-.195.457-.238.75-.219 1.575.02.66.024.75.118 1.02.289.866 1.136 1.593 2.484 2.12 1.57.617 3.637.969 6.875 1.184.988.062 5.727.062 6.715 0a43 43 0 0 0 2.734-.246c3.871-.489 6.02-1.489 6.57-3.047.075-.207.087-.324.102-1.055.016-.93-.012-1.137-.23-1.62-.211-.474-.508-.872-1.075-1.419-.554-.547-.98-.875-1.734-1.363-1.176-.754-2.539-1.43-4.113-2.035-.871-.34-.996-.38-1.016-.325-.008.024-.066.262-.129.532-.652 2.808-1.644 5.867-2.441 7.52l-.121.25-.067-.266c-.285-1.141-.902-2.922-1.367-3.942l-.094-.203.286-.164c.156-.09.382-.254.503-.36.461-.41.59-.878.372-1.328-.141-.289-.543-.652-.97-.867-.48-.242-.585-.265-.827-.191-.371.117-.782.351-1.012.578-.285.27-.39.492-.418.84-.016.238-.008.281.102.492.136.273.488.613.855.82.125.078.246.141.266.149.02.004-.07.246-.192.539-.426 1-.851 2.207-1.133 3.215l-.18.64-.16-.336c-.734-1.527-1.585-4.082-2.288-6.87-.157-.622-.293-1.13-.305-1.13-.008 0-.29.114-.625.247m0 0" style="stroke:none;fill-rule:nonzero;fill:#000;fill-opacity:1"/></svg>